<svg width="4477" height="2388" xmlns="http://www.w3.org/2000/svg" xmlns:xlink="http://www.w3.org/1999/xlink" xml:space="preserve" overflow="hidden"><defs><clipPath id="clip0"><rect x="-77" y="41" width="4477" height="2388"/></clipPath></defs><g clip-path="url(#clip0)" transform="translate(77 -41)"><path d="M445 468C445 449.774 459.775 435 478 435 496.226 435 511 449.774 511 468 511 486.225 496.226 501 478 501 459.775 501 445 486.225 445 468Z" fill="#8FAADC" fill-rule="evenodd" fill-opacity="1"/><path d="M529 468C529 449.774 543.775 435 562 435 580.225 435 595 449.774 595 468 595 486.225 580.225 501 562 501 543.775 501 529 486.225 529 468Z" fill="#8FAADC" fill-rule="evenodd" fill-opacity="1"/><path d="M496 548C496 529.775 510.775 515 529 515 547.225 515 562 529.775 562 548 562 566.225 547.225 581 529 581 510.775 581 496 566.225 496 548Z" fill="#8FAADC" fill-rule="evenodd" fill-opacity="1"/><path d="M397 495.5C397 427.293 452.293 372 520.5 372 588.707 372 644 427.293 644 495.5 644 563.707 588.707 619 520.5 619 452.293 619 397 563.707 397 495.5Z" stroke="#B4C7E7" stroke-width="10.3125" stroke-linecap="butt" stroke-linejoin="miter" stroke-miterlimit="8" stroke-dasharray="41.25 30.9375" stroke-opacity="1" fill="none" fill-rule="evenodd"/><text fill="#000000" fill-opacity="1" font-family="Calibri,Calibri_MSFontService,sans-serif" font-style="normal" font-variant="normal" font-weight="700" font-stretch="normal" font-size="83" text-anchor="start" direction="ltr" writing-mode="lr-tb" unicode-bidi="normal" text-decoration="none" transform="matrix(1 0 0 1 272.474 146)">Acquire Initial <tspan fill="#000000" fill-opacity="1" font-family="Calibri,Calibri_MSFontService,sans-serif" font-style="normal" font-variant="normal" font-weight="700" font-stretch="normal" font-size="83" text-anchor="start" direction="ltr" writing-mode="lr-tb" unicode-bidi="normal" text-decoration="none" x="-84.9292" y="99">Seed Micro</tspan>-<tspan fill="#000000" fill-opacity="1" font-family="Calibri,Calibri_MSFontService,sans-serif" font-style="normal" font-variant="normal" font-weight="700" font-stretch="normal" font-size="83" text-anchor="start" direction="ltr" writing-mode="lr-tb" unicode-bidi="normal" text-decoration="none" x="323.698" y="99">Cluster</tspan></text><path d="M798 489.844 1721.16 489.844 1721.16 500.157 798 500.156ZM1716 479.532 1746.94 495 1716 510.469Z" fill="#000000" fill-rule="nonzero" fill-opacity="1"/><path d="M1891 1488C1891 1474.19 1903.09 1463 1918 1463 1932.91 1463 1945 1474.19 1945 1488 1945 1501.81 1932.91 1513 1918 1513 1903.09 1513 1891 1501.81 1891 1488Z" fill="#8FAADC" fill-rule="evenodd" fill-opacity="1"/><path d="M1961 1488C1961 1474.19 1973.09 1463 1988 1463 2002.91 1463 2015 1474.19 2015 1488 2015 1501.81 2002.91 1513 1988 1513 1973.09 1513 1961 1501.81 1961 1488Z" fill="#8FAADC" fill-rule="evenodd" fill-opacity="1"/><path d="M1933 1549C1933 1535.19 1945.09 1524 1960 1524 1974.91 1524 1987 1535.19 1987 1549 1987 1562.81 1974.91 1574 1960 1574 1945.09 1574 1933 1562.81 1933 1549Z" fill="#8FAADC" fill-rule="evenodd" fill-opacity="1"/><path d="M1851 1508.5C1851 1456.86 1896.67 1415 1953 1415 2009.33 1415 2055 1456.86 2055 1508.5 2055 1560.14 2009.33 1602 1953 1602 1896.67 1602 1851 1560.14 1851 1508.5Z" stroke="#B4C7E7" stroke-width="10.3125" stroke-linecap="butt" stroke-linejoin="miter" stroke-miterlimit="8" stroke-dasharray="41.25 30.9375" stroke-opacity="1" fill="none" fill-rule="evenodd"/><path d="M2208.5 1475.5C2208.5 1461.69 2220.59 1450.5 2235.5 1450.5 2250.41 1450.5 2262.5 1461.69 2262.5 1475.5 2262.5 1489.31 2250.41 1500.5 2235.5 1500.5 2220.59 1500.5 2208.5 1489.31 2208.5 1475.5Z" stroke="#A9D18E" stroke-width="4.58333" stroke-linecap="butt" stroke-linejoin="miter" stroke-miterlimit="8" stroke-opacity="1" fill="#C5E0B4" fill-rule="evenodd" fill-opacity="1"/><path d="M2278.5 1475.5C2278.5 1461.69 2290.59 1450.5 2305.5 1450.5 2320.41 1450.5 2332.5 1461.69 2332.5 1475.5 2332.5 1489.31 2320.41 1500.5 2305.5 1500.5 2290.59 1500.5 2278.5 1489.31 2278.5 1475.5Z" stroke="#A9D18E" stroke-width="4.58333" stroke-linecap="butt" stroke-linejoin="miter" stroke-miterlimit="8" stroke-opacity="1" fill="#C5E0B4" fill-rule="evenodd" fill-opacity="1"/><path d="M2250.5 1536.5C2250.5 1522.69 2262.59 1511.5 2277.5 1511.5 2292.41 1511.5 2304.5 1522.69 2304.5 1536.5 2304.5 1550.31 2292.41 1561.5 2277.5 1561.5 2262.59 1561.5 2250.5 1550.31 2250.5 1536.5Z" stroke="#A9D18E" stroke-width="4.58333" stroke-linecap="butt" stroke-linejoin="miter" stroke-miterlimit="8" stroke-opacity="1" fill="#C5E0B4" fill-rule="evenodd" fill-opacity="1"/><path d="M2169 1495.5C2169 1443.86 2214.44 1402 2270.5 1402 2326.56 1402 2372 1443.86 2372 1495.5 2372 1547.14 2326.56 1589 2270.5 1589 2214.44 1589 2169 1547.14 2169 1495.5Z" stroke="#A9D18E" stroke-width="10.3125" stroke-linecap="butt" stroke-linejoin="miter" stroke-miterlimit="8" stroke-dasharray="41.25 30.9375" stroke-opacity="1" fill="none" fill-rule="evenodd"/><text fill="#000000" fill-opacity="1" font-family="Calibri,Calibri_MSFontService,sans-serif" font-style="normal" font-variant="normal" font-weight="700" font-stretch="normal" font-size="64" text-anchor="start" direction="ltr" writing-mode="lr-tb" unicode-bidi="normal" text-decoration="none" transform="matrix(1 0 0 1 1614.1 1114)">Cosine Similarity Radius</text><path d="M1601 1533C1601 1340.25 1757.03 1184 1949.5 1184 2141.97 1184 2298 1340.25 2298 1533 2298 1725.75 2141.97 1882 1949.5 1882 1757.03 1882 1601 1725.75 1601 1533Z" stroke="#FFBFB5" stroke-width="10.3125" stroke-linecap="butt" stroke-linejoin="miter" stroke-miterlimit="8" stroke-opacity="1" fill="#E95562" fill-rule="evenodd" fill-opacity="0.294118"/><text fill="#000000" fill-opacity="1" font-family="Calibri,Calibri_MSFontService,sans-serif" font-style="normal" font-variant="normal" font-weight="700" font-stretch="normal" font-size="64" text-anchor="start" direction="ltr" writing-mode="lr-tb" unicode-bidi="normal" text-decoration="none" transform="matrix(1 0 0 1 1836.63 1689)">Cluster 1<tspan fill="#000000" fill-opacity="1" font-family="Calibri,Calibri_MSFontService,sans-serif" font-style="normal" font-variant="normal" font-weight="700" font-stretch="normal" font-size="64" text-anchor="start" direction="ltr" writing-mode="lr-tb" unicode-bidi="normal" text-decoration="none" x="-1424.48" y="-937">Cluster 1</tspan><tspan fill="#000000" fill-opacity="1" font-family="Calibri,Calibri_MSFontService,sans-serif" font-style="normal" font-variant="normal" font-weight="700" font-stretch="normal" font-size="64" text-anchor="start" direction="ltr" writing-mode="lr-tb" unicode-bidi="normal" text-decoration="none" x="341.806" y="0">Cluster 2</tspan></text><rect x="1829" y="210" width="698" height="540" stroke="#94AADE" stroke-width="13.75" stroke-linecap="butt" stroke-linejoin="miter" stroke-miterlimit="8" stroke-opacity="1" fill="none"/><text fill="#000000" fill-opacity="1" font-family="Calibri,Calibri_MSFontService,sans-serif" font-style="normal" font-variant="normal" font-weight="700" font-stretch="normal" font-size="73" text-anchor="start" direction="ltr" writing-mode="lr-tb" unicode-bidi="normal" text-decoration="none" transform="matrix(1 0 0 1 912.214 413)">Add Cluster to Queue<tspan fill="#000000" fill-opacity="1" font-family="Calibri,Calibri_MSFontService,sans-serif" font-style="normal" font-variant="normal" font-weight="700" font-stretch="normal" font-size="64" text-anchor="start" direction="ltr" writing-mode="lr-tb" unicode-bidi="normal" text-decoration="none" x="1136.43" y="-72">Cluster 1</tspan></text><path d="M2569 441.844 3492.16 441.844 3492.16 452.156 2569 452.156ZM3487 431.531 3517.94 447 3487 462.469Z" fill="#000000" fill-rule="nonzero" fill-opacity="1"/><text fill="#000000" fill-opacity="1" font-family="Calibri,Calibri_MSFontService,sans-serif" font-style="normal" font-variant="normal" font-weight="700" font-stretch="normal" font-size="73" text-anchor="start" direction="ltr" writing-mode="lr-tb" unicode-bidi="normal" text-decoration="none" transform="matrix(1 0 0 1 2676.3 351)">Pop Cluster from Queue</text><path d="M3730 397C3730 378.775 3744.77 364 3763 364 3781.23 364 3796 378.775 3796 397 3796 415.225 3781.23 430 3763 430 3744.77 430 3730 415.225 3730 397Z" fill="#8FAADC" fill-rule="evenodd" fill-opacity="1"/><path d="M3815 397C3815 378.775 3829.77 364 3848 364 3866.23 364 3881 378.775 3881 397 3881 415.225 3866.23 430 3848 430 3829.77 430 3815 415.225 3815 397Z" fill="#8FAADC" fill-rule="evenodd" fill-opacity="1"/><path d="M3781 477C3781 458.775 3795.77 444 3814 444 3832.23 444 3847 458.775 3847 477 3847 495.226 3832.23 510 3814 510 3795.77 510 3781 495.226 3781 477Z" fill="#8FAADC" fill-rule="evenodd" fill-opacity="1"/><path d="M3683 424.5C3683 356.293 3738.29 301 3806.5 301 3874.71 301 3930 356.293 3930 424.5 3930 492.707 3874.71 548 3806.5 548 3738.29 548 3683 492.707 3683 424.5Z" stroke="#B4C7E7" stroke-width="10.3125" stroke-linecap="butt" stroke-linejoin="miter" stroke-miterlimit="8" stroke-dasharray="41.25 30.9375" stroke-opacity="1" fill="none" fill-rule="evenodd"/><text fill="#000000" fill-opacity="1" font-family="Calibri,Calibri_MSFontService,sans-serif" font-style="normal" font-variant="normal" font-weight="700" font-stretch="normal" font-size="64" text-anchor="start" direction="ltr" writing-mode="lr-tb" unicode-bidi="normal" text-decoration="none" transform="matrix(1 0 0 1 3697.87 681)">Cluster 1<tspan fill="#000000" fill-opacity="1" font-family="Calibri,Calibri_MSFontService,sans-serif" font-style="normal" font-variant="normal" font-weight="700" font-stretch="normal" font-size="73" text-anchor="start" direction="ltr" writing-mode="lr-tb" unicode-bidi="normal" text-decoration="none" x="-159.661" y="363">For Each Timestep</tspan><tspan fill="#000000" fill-opacity="1" font-family="Calibri,Calibri_MSFontService,sans-serif" font-style="normal" font-variant="normal" font-weight="700" font-stretch="normal" font-size="64" text-anchor="start" direction="ltr" writing-mode="lr-tb" unicode-bidi="normal" text-decoration="none" x="-1323.4" y="502">1. Find other clusters whose </tspan><tspan fill="#000000" fill-opacity="1" font-family="Calibri,Calibri_MSFontService,sans-serif" font-style="normal" font-variant="normal" font-weight="700" font-stretch="normal" font-size="64" text-anchor="start" direction="ltr" writing-mode="lr-tb" unicode-bidi="normal" text-decoration="none" x="-1153.68" y="579">centroids fall within a </tspan><tspan fill="#000000" fill-opacity="1" font-family="Calibri,Calibri_MSFontService,sans-serif" font-style="normal" font-variant="normal" font-weight="700" font-stretch="normal" font-size="64" text-anchor="start" direction="ltr" writing-mode="lr-tb" unicode-bidi="normal" text-decoration="none" x="-1024.08" y="656">cosine similarity.</tspan><tspan fill="#000000" fill-opacity="1" font-family="Calibri,Calibri_MSFontService,sans-serif" font-style="normal" font-variant="normal" font-weight="700" font-stretch="normal" font-size="64" text-anchor="start" direction="ltr" writing-mode="lr-tb" unicode-bidi="normal" text-decoration="none" x="-2834.53" y="1088">2. Add found clusters to the </tspan><tspan fill="#000000" fill-opacity="1" font-family="Calibri,Calibri_MSFontService,sans-serif" font-style="normal" font-variant="normal" font-weight="700" font-stretch="normal" font-size="64" text-anchor="start" direction="ltr" writing-mode="lr-tb" unicode-bidi="normal" text-decoration="none" x="-2284.37" y="1165">queue.</tspan></text><path d="M1218.84 1692.18 1218.84 661.844 1875.79 661.844 1875.79 672.156 1224 672.156 1229.16 667 1229.16 1692.18ZM1870.64 651.531 1901.57 667 1870.64 682.469Z" fill="#E95562" fill-rule="nonzero" fill-opacity="1"/><text fill="#000000" fill-opacity="1" font-family="Calibri,Calibri_MSFontService,sans-serif" font-style="normal" font-variant="normal" font-weight="700" font-stretch="normal" font-size="64" text-anchor="start" direction="ltr" writing-mode="lr-tb" unicode-bidi="normal" text-decoration="none" transform="matrix(1 0 0 1 2061.49 688)">Cluster 2<tspan fill="#000000" fill-opacity="1" font-family="Calibri,Calibri_MSFontService,sans-serif" font-style="normal" font-variant="normal" font-weight="400" font-stretch="normal" font-size="83" text-anchor="start" direction="ltr" writing-mode="lr-tb" unicode-bidi="normal" text-decoration="none" x="92.6748" y="-294">.</tspan><tspan fill="#000000" fill-opacity="1" font-family="Calibri,Calibri_MSFontService,sans-serif" font-style="normal" font-variant="normal" font-weight="400" font-stretch="normal" font-size="83" text-anchor="start" direction="ltr" writing-mode="lr-tb" unicode-bidi="normal" text-decoration="none" x="92.6748" y="-195">.</tspan><tspan fill="#000000" fill-opacity="1" font-family="Calibri,Calibri_MSFontService,sans-serif" font-style="normal" font-variant="normal" font-weight="400" font-stretch="normal" font-size="83" text-anchor="start" direction="ltr" writing-mode="lr-tb" unicode-bidi="normal" text-decoration="none" x="92.6748" y="-96">.</tspan></text><path d="M3814 716 3814 958.986" stroke="#000000" stroke-width="10.3125" stroke-linecap="butt" stroke-linejoin="miter" stroke-miterlimit="8" stroke-opacity="1" fill="none" fill-rule="evenodd"/><path d="M3819.02 1081 3819.02 1244.91 3178.78 1244.91 3178.78 1234.6 3813.86 1234.6 3808.71 1239.75 3808.71 1081ZM3183.94 1255.22 3153 1239.75 3183.94 1224.29Z" fill="#000000" fill-rule="nonzero" fill-opacity="1"/><text fill="#000000" fill-opacity="1" font-family="Calibri,Calibri_MSFontService,sans-serif" font-style="normal" font-variant="normal" font-weight="700" font-stretch="normal" font-size="83" text-anchor="start" direction="ltr" writing-mode="lr-tb" unicode-bidi="normal" text-decoration="none" transform="matrix(1 0 0 1 2064.1 830)">Queue</text><rect x="3532" y="1737" width="698" height="540" stroke="#C8E1CC" stroke-width="13.75" stroke-linecap="butt" stroke-linejoin="miter" stroke-miterlimit="8" stroke-opacity="1" fill="none"/><text fill="#000000" fill-opacity="1" font-family="Calibri,Calibri_MSFontService,sans-serif" font-style="normal" font-variant="normal" font-weight="700" font-stretch="normal" font-size="73" text-anchor="start" direction="ltr" writing-mode="lr-tb" unicode-bidi="normal" text-decoration="none" transform="matrix(1 0 0 1 3665.97 2362)">Inspection Set</text><path d="M0 5.15625-3.19445 5.15625 1.9618 0 1.9618 341.912-3.19445 336.756 1210.03 336.756 1204.87 341.912 1204.87 285.193 1215.18 285.193 1215.18 347.068-8.3507 347.068-8.3507-5.15625 0-5.15625ZM1194.56 290.349 1210.03 259.412 1225.5 290.349Z" fill="#0D0D0D" fill-rule="nonzero" fill-opacity="1" transform="matrix(1.83697e-16 1 1 -1.83697e-16 4039 430)"/><text fill="#000000" fill-opacity="1" font-family="Calibri,Calibri_MSFontService,sans-serif" font-style="normal" font-variant="normal" font-weight="400" font-stretch="normal" font-size="83" text-anchor="start" direction="ltr" writing-mode="lr-tb" unicode-bidi="normal" text-decoration="none" transform="matrix(1 0 0 1 3869.59 1950)">.<tspan fill="#000000" fill-opacity="1" font-family="Calibri,Calibri_MSFontService,sans-serif" font-style="normal" font-variant="normal" font-weight="400" font-stretch="normal" font-size="83" text-anchor="start" direction="ltr" writing-mode="lr-tb" unicode-bidi="normal" text-decoration="none" x="0" y="99">.</tspan><tspan fill="#000000" fill-opacity="1" font-family="Calibri,Calibri_MSFontService,sans-serif" font-style="normal" font-variant="normal" font-weight="400" font-stretch="normal" font-size="83" text-anchor="start" direction="ltr" writing-mode="lr-tb" unicode-bidi="normal" text-decoration="none" x="0" y="198">.</tspan><tspan fill="#000000" fill-opacity="1" font-family="Calibri,Calibri_MSFontService,sans-serif" font-style="normal" font-variant="normal" font-weight="700" font-stretch="normal" font-size="64" text-anchor="start" direction="ltr" writing-mode="lr-tb" unicode-bidi="normal" text-decoration="none" x="-106.104" y="-105">Cluster 1</tspan><tspan fill="#000000" fill-opacity="1" font-family="Calibri,Calibri_MSFontService,sans-serif" font-style="normal" font-variant="normal" font-weight="700" font-stretch="normal" font-size="64" text-anchor="start" direction="ltr" writing-mode="lr-tb" unicode-bidi="normal" text-decoration="none" x="-308.626" y="-328">Add to Inspection Set for </tspan><tspan fill="#000000" fill-opacity="1" font-family="Calibri,Calibri_MSFontService,sans-serif" font-style="normal" font-variant="normal" font-weight="700" font-stretch="normal" font-size="64" text-anchor="start" direction="ltr" writing-mode="lr-tb" unicode-bidi="normal" text-decoration="none" x="-295.769" y="-251">Later Human Inspection</tspan><tspan fill="#000000" fill-opacity="1" font-family="Calibri,Calibri_MSFontService,sans-serif" font-style="normal" font-variant="normal" font-weight="700" font-stretch="normal" font-size="64" text-anchor="start" direction="ltr" writing-mode="lr-tb" unicode-bidi="normal" text-decoration="none" x="-106.105" y="289">Cluster 2</tspan></text></g></svg>